<svg id="Capa_1" data-name="Capa 1" xmlns="http://www.w3.org/2000/svg" viewBox="0 0 180 120"><defs><style>.cls-1{fill:#412236;}</style></defs><title>em-p-logo2svg</title><path class="cls-1" d="M16.86,77.11q-6.37-6.33-6.37-17.47A27.16,27.16,0,0,1,13.27,47,19.79,19.79,0,0,1,21,38.71a22.56,22.56,0,0,1,11.45-2.87,25.36,25.36,0,0,1,11.36,2.42,18.6,18.6,0,0,1,7.55,6.51,16.33,16.33,0,0,1,2.65,9,14.46,14.46,0,0,1-.45,3.86l-.45,1.53c-2.57.54-5.36,1-8.35,1.35a134.29,134.29,0,0,1-19,1.35q0,10.41,2.87,14.86a9,9,0,0,0,7.9,4.45,13.27,13.27,0,0,0,6.52-1.67,12.94,12.94,0,0,0,4.76-4.4,10.33,10.33,0,0,0,1.75-5.61H51.8a12.09,12.09,0,0,1-2.15,6.83,15.34,15.34,0,0,1-6,5.16,19.61,19.61,0,0,1-8.89,1.93Q23.24,83.44,16.86,77.11ZM35.1,59.19a21.93,21.93,0,0,0,3.23-.45c.06-.3.21-1,.45-2A24.29,24.29,0,0,0,39.23,52q0-7.44-2-10.91c-1.32-2.3-2.9-3.46-4.76-3.46q-6.74,0-6.73,22A78.15,78.15,0,0,0,35.1,59.19Z"/><path class="cls-1" d="M60.79,80.75l5.38-1.35V39.88l-5.38-1.35V37.18h8.08a10.62,10.62,0,0,1,8.35,3.42,11.88,11.88,0,0,1,2,3.32,17.06,17.06,0,0,1,2.87-4,12.72,12.72,0,0,1,9.25-4,17.94,17.94,0,0,1,9.17,2.29,15.91,15.91,0,0,1,6.1,6.24,18.47,18.47,0,0,1,2.88-4.22,12.53,12.53,0,0,1,9.25-4.31,18.5,18.5,0,0,1,8.58,2,14.9,14.9,0,0,1,5.93,5.39,14,14,0,0,1,2.11,7.46V79.4l5.39,1.35v1.34H129.05Q121,82.09,121,74V50.66q0-5.83-1.8-8.76t-4-2.92q-2.61,0-5.3,3.59a25.65,25.65,0,0,0-1.89,3.6V79.4l5.39,1.35v1.34H88.18V80.75l5.39-1.35V50.66q0-5.83-1.8-8.76t-4-2.92c-1.74,0-3.5,1.2-5.3,3.59a24.59,24.59,0,0,0-1.88,3.6V79.4l5.39,1.35v1.34H60.79Z"/><path class="cls-1" d="M151.62,80.41a9.76,9.76,0,1,1,7.07,3A9.7,9.7,0,0,1,151.62,80.41Z"/></svg>