<svg id="Capa_1" data-name="Capa 1" xmlns="http://www.w3.org/2000/svg" viewBox="0 0 120 120"><defs><style>.cls-1{fill:#412236;}</style></defs><title>em-p-logo1svg</title><path class="cls-1" d="M12.77,50.58Q6.4,44.25,6.4,33.11A27.29,27.29,0,0,1,9.18,20.45,19.77,19.77,0,0,1,17,12.19,22.46,22.46,0,0,1,28.4,9.31a25.27,25.27,0,0,1,11.37,2.43,18.56,18.56,0,0,1,7.54,6.51,16.23,16.23,0,0,1,2.65,9,14.56,14.56,0,0,1-.45,3.86l-.45,1.53c-2.57.53-5.36,1-8.35,1.34a134.29,134.29,0,0,1-19,1.35q0,10.43,2.87,14.86a9,9,0,0,0,7.9,4.45A13.26,13.26,0,0,0,39,53a13,13,0,0,0,4.76-4.4A10.29,10.29,0,0,0,45.47,43h2.24a12.06,12.06,0,0,1-2.15,6.82,15.21,15.21,0,0,1-6,5.17,19.71,19.71,0,0,1-8.89,1.93Q19.15,56.92,12.77,50.58ZM31,32.67a21.93,21.93,0,0,0,3.23-.45q.09-.45.45-2a24.19,24.19,0,0,0,.45-4.76q0-7.45-2-10.91T28.4,11.11q-6.73,0-6.73,22A78.47,78.47,0,0,0,31,32.67Z"/><path class="cls-1" d="M6.4,106.62l5.39-1.35V65.75L6.4,64.4V63.06h8.08a10.61,10.61,0,0,1,8.35,3.41,12,12,0,0,1,2,3.32,17.56,17.56,0,0,1,2.87-4,12.76,12.76,0,0,1,9.26-4A17.93,17.93,0,0,1,46.1,64a16,16,0,0,1,6.11,6.24A18.14,18.14,0,0,1,55.08,66a12.53,12.53,0,0,1,9.25-4.31,18.47,18.47,0,0,1,8.58,2,14.9,14.9,0,0,1,5.93,5.39A14,14,0,0,1,81,76.53v28.74l5.39,1.35V108H74.66q-8.09,0-8.08-8.09V76.53q0-5.84-1.8-8.76c-1.2-1.94-2.54-2.92-4-2.92-1.74,0-3.5,1.2-5.3,3.59A25.65,25.65,0,0,0,53.55,72v33.23l5.39,1.35V108H33.79v-1.35l5.39-1.35V76.53q0-5.84-1.79-8.76c-1.2-1.94-2.55-2.92-4-2.92q-2.6,0-5.3,3.59A25.6,25.6,0,0,0,26.16,72v33.23l5.39,1.35V108H6.4Z"/><path class="cls-1" d="M97.23,106.28a9.76,9.76,0,1,1,7.07,3A9.7,9.7,0,0,1,97.23,106.28Z"/></svg>