<svg id="render" xmlns="http://www.w3.org/2000/svg" viewBox="0 0 84.19 47.8"><defs><style>.cls-1{fill:#fff;}.cls-2{fill:#dfab67;}</style></defs><title>isotype</title><path class="cls-1" d="M121.7-80.25v208H-38.17v-208H121.7m1-1H-39.17v210H122.7v-210Z"/><path class="cls-2" d="M31.28,29a19.56,19.56,0,0,1,1.66,7.28h.65V11.82h-.65q-.16,6.76-3.12,9.46t-8.89,2.79a17.64,17.64,0,0,1,6.5,1.23A7.75,7.75,0,0,1,31.28,29Z"/><path class="cls-2" d="M44.91,0H26.69c1.36.18,2.64.43,3.88.72.88.21,1.68.47,2.49.72a6.45,6.45,0,0,1,.85.27,9,9,0,0,1,4,3.17,32,32,0,0,1,4,7.68c.38,1,.93,2.52,1.63,4.5l10.59,30,.77.52Q57,40.95,58.18,36.86,51.42,18.52,44.91,0Z"/><path class="cls-2" d="M36.54,41.43a13.57,13.57,0,0,1-6,4.39,37.05,37.05,0,0,1-8,2H40.74v-15h-.81A19.19,19.19,0,0,1,36.54,41.43Z"/><path class="cls-2" d="M0,0V1.27H.84a5.59,5.59,0,0,1,3.8,1.17A6.18,6.18,0,0,1,6.5,5.57,17.33,17.33,0,0,1,7,9.93V37.87a17.53,17.53,0,0,1-.51,4.37,6.17,6.17,0,0,1-1.86,3.14,5.59,5.59,0,0,1-3.8,1.17H0V47.8H14.11l0-23.9,0-23.9Z"/><path class="cls-2" d="M77.3,5.57a6,6,0,0,1,1.86-3.13A4,4,0,0,1,79.79,2L80,1.87a4.4,4.4,0,0,1,.5-.21l.53-.16.54-.12.39,0c.25,0,.51,0,.78-.05h1.42V0H69.68l0,23.9v1.34c0,1.43,0,2.85,0,4.27v8.27c0,2.93-.52,5.11-1.54,6.53a5.42,5.42,0,0,1-4.71,2.14H61.93V47.8H84.19V46.45H82.91a5.35,5.35,0,0,1-5-2.65,6.77,6.77,0,0,1-.62-1.56,17.53,17.53,0,0,1-.51-4.37V9.93A17.33,17.33,0,0,1,77.3,5.57Z"/></svg>